<?xml version="1.0" encoding="utf-8"?>
<!-- Generator: Adobe Illustrator 20.1.0, SVG Export Plug-In . SVG Version: 6.00 Build 0)  -->
<svg version="1.1" id="Layer_1" xmlns="http://www.w3.org/2000/svg" xmlns:xlink="http://www.w3.org/1999/xlink" x="0px" y="0px"
	 viewBox="0 0 161 161" style="enable-background:new 0 0 161 161;" xml:space="preserve">
<style type="text/css">
	.st0{display:none;}
	.st1{filter:url(#Adobe_OpacityMaskFilter);}
	.st2{fill:#FFFFFF;}
	.st3{mask:url(#mask-2);fill:#FFFFFF;}
</style>
<title>empire</title>
<desc>Created with Sketch.</desc>
<g id="Page-1">
	<g id="Menu-Opening" transform="translate(-126.000000, -465.000000)">
		<g id="empire" transform="translate(126.000000, 465.000000)">
			<g id="Clip-2" class="st0">
			</g>
			<defs>
				<filter id="Adobe_OpacityMaskFilter" filterUnits="userSpaceOnUse" x="0" y="0" width="160.2" height="160.2">
					<feColorMatrix  type="matrix" values="1 0 0 0 0  0 1 0 0 0  0 0 1 0 0  0 0 0 1 0"/>
				</filter>
			</defs>
			<mask maskUnits="userSpaceOnUse" x="0" y="0" width="160.2" height="160.2" id="mask-2">
				<g class="st1">
					<polygon id="path-1" class="st2" points="160.2,160.2 0,160.2 0,0 160.2,0 					"/>
				</g>
			</mask>
			<path id="Fill-1" class="st3" d="M143.4,112.8l-2.9-1.7c2.2-4.2,3.9-8.7,5.2-13.4l-8.2-2.2c1.3-4.9,2-10.1,2-15.4
				c0-5.3-0.7-10.5-2-15.4l8.2-2.2c-1.3-4.7-3-9.2-5.2-13.4l2.9-1.7c2.3,4.5,4.2,9.3,5.5,14.2c1.6,5.9,2.4,12.1,2.4,18.4
				c0,6.4-0.8,12.6-2.4,18.5C147.6,103.6,145.7,108.3,143.4,112.8L143.4,112.8z M130.5,130.5c-8.7,8.7-19.7,15.2-31.9,18.4
				c-5,1.3-10.3,2.2-15.7,2.4v-3.3c5.1-0.2,10.1-1,14.8-2.2l-2.2-8.2c10.2-2.7,19.4-8.1,26.6-15.4l6,6c3.4-3.4,6.4-7.2,9.1-11.2
				l2.9,1.7C137.3,122.9,134.1,126.9,130.5,130.5L130.5,130.5z M76.2,151.2c-5-0.3-9.8-1.1-14.5-2.3c-12.3-3.3-23.2-9.8-31.9-18.5
				c-3.6-3.6-6.8-7.6-9.6-11.9l2.9-1.7c2.6,4,5.6,7.8,9,11.2l6-6c7.3,7.3,16.4,12.7,26.7,15.4l-2.2,8.2c4.4,1.2,8.9,1.9,13.6,2.2
				V151.2z M16.8,112.8c-2.3-4.5-4.2-9.3-5.5-14.3c-1.6-5.9-2.4-12-2.4-18.4c0-6.4,0.8-12.6,2.4-18.4c1.3-5,3.2-9.8,5.5-14.3
				l2.9,1.7c-2.2,4.2-3.9,8.7-5.2,13.4l8.2,2.2c-1.3,4.9-2,10.1-2,15.4c0,5.3,0.7,10.5,2,15.3l-8.2,2.2c1.3,4.7,3,9.2,5.2,13.5
				L16.8,112.8z M29.8,29.8c8.7-8.7,19.7-15.2,31.9-18.5c4.7-1.2,9.5-2,14.5-2.3v3.3c-4.7,0.3-9.2,1-13.6,2.2l2.2,8.2
				c-10.2,2.7-19.4,8.1-26.6,15.4l-6-6c-3.4,3.4-6.4,7.1-9,11.2l-2.9-1.7C22.9,37.4,26.2,33.4,29.8,29.8L29.8,29.8z M104.2,80.1
				c0,2.2-0.3,4.3-0.8,6.3l24.6,6.6c-2.3,8.5-6.8,16.1-12.8,22.2l-18-18c-2.9,2.9-6.6,5.1-10.8,6.2l6.6,24.6
				c-4.1,1.1-8.4,1.7-12.8,1.7c-4.4,0-8.7-0.6-12.8-1.7l6.6-24.6c-4.1-1.1-7.9-3.3-10.8-6.3l-18,18c-6-6.1-10.5-13.7-12.8-22.2
				l24.6-6.6c-0.5-2-0.8-4.1-0.8-6.2c0-2.2,0.3-4.2,0.8-6.2l-24.6-6.6c2.3-8.5,6.8-16.1,12.8-22.2l18,18c2.9-2.9,6.6-5.1,10.8-6.2
				l-6.6-24.6c4.1-1.1,8.4-1.7,12.8-1.7c4.4,0,8.7,0.6,12.8,1.7l-6.6,24.6c4.1,1.1,7.9,3.3,10.8,6.2l18-18
				c6.1,6.1,10.5,13.7,12.8,22.2l-24.6,6.6C103.9,75.9,104.2,78,104.2,80.1L104.2,80.1z M82.8,9c5.4,0.2,10.7,1,15.7,2.4
				c12.3,3.3,23.2,9.7,31.9,18.5c3.6,3.6,6.8,7.6,9.6,11.9l-2.9,1.7c-2.6-4.1-5.7-7.8-9-11.2l-6,6c-7.3-7.3-16.4-12.7-26.7-15.4
				l2.2-8.2c-4.8-1.3-9.7-2-14.8-2.2V9z M157.5,59.4c-3.7-13.8-11-26.1-20.7-35.9c-9.8-9.8-22.1-17.1-35.9-20.8
				C94.2,0.9,87.3,0,80.1,0C72.9,0,66,0.9,59.4,2.7c-13.8,3.7-26.1,11-35.9,20.8C13.7,33.3,6.4,45.6,2.7,59.4C0.9,66,0,72.9,0,80.1
				c0,7.2,0.9,14.1,2.7,20.7c3.7,13.8,10.9,26.1,20.7,35.9c9.8,9.8,22.1,17.1,35.9,20.8c6.6,1.8,13.6,2.7,20.7,2.7
				c7.2,0,14.1-0.9,20.7-2.7c13.8-3.7,26.1-11,35.9-20.8c9.8-9.8,17.1-22.1,20.7-35.9c1.8-6.6,2.7-13.6,2.7-20.8
				C160.2,72.9,159.3,66,157.5,59.4L157.5,59.4z"/>
		</g>
	</g>
</g>
</svg>
