<?xml version="1.0" encoding="utf-8"?>
<!-- Generator: Adobe Illustrator 20.1.0, SVG Export Plug-In . SVG Version: 6.00 Build 0)  -->
<svg version="1.1" id="Layer_1" xmlns="http://www.w3.org/2000/svg" xmlns:xlink="http://www.w3.org/1999/xlink" x="0px" y="0px"
	 viewBox="0 0 160 161" style="enable-background:new 0 0 160 161;" xml:space="preserve">
<style type="text/css">
	.st0{display:none;}
	.st1{filter:url(#Adobe_OpacityMaskFilter);}
	.st2{fill:#FFFFFF;}
	.st3{mask:url(#mask-2);fill:#FFFFFF;}
</style>
<title>rebels</title>
<desc>Created with Sketch.</desc>
<g id="Page-1">
	<g id="Menu-Opening" transform="translate(-126.000000, -115.000000)">
		<g id="rebels" transform="translate(126.000000, 115.000000)">
			<g id="Clip-2" class="st0">
			</g>
			<defs>
				<filter id="Adobe_OpacityMaskFilter" filterUnits="userSpaceOnUse" x="0" y="0" width="159.8" height="160.2">
					<feColorMatrix  type="matrix" values="1 0 0 0 0  0 1 0 0 0  0 0 1 0 0  0 0 0 1 0"/>
				</filter>
			</defs>
			<mask maskUnits="userSpaceOnUse" x="0" y="0" width="159.8" height="160.2" id="mask-2">
				<g class="st1">
					<polygon id="path-1" class="st2" points="159.8,80.1 159.8,160.2 0,160.2 0,80.1 0,0 159.8,0 					"/>
				</g>
			</mask>
			<path id="Fill-1" class="st3" d="M97.2,1.9c26.1,14.9,33.5,35.9,35.8,50.4c3,18.6-4.9,38.6-20,41.1C97.6,96,89.6,80.5,88.5,72.1
				c-1.2-9.4,2.8-19.4,8.2-26.3c2.9-3.7,7.1-8.7,13.1-13.1l-9-9.9c-4.2,2.7-7.5,7.5-9.2,11c0,0-0.1-3.5,0.6-6.3c1-3.6,2.3-6.4,3-7.6
				c0.4-0.7,0.8-1.3,1.2-1.8L79.9,0L63.4,18c0.4,0.5,0.7,1.1,1.2,1.8c0.7,1.2,2,4,3,7.6c0.7,2.7,0.6,6.3,0.6,6.3
				c-1.6-3.5-4.9-8.2-9.2-11l-9,9.9c6,4.4,10.2,9.4,13.1,13.1c5.4,6.9,9.4,16.8,8.2,26.3c-1.1,8.5-9.1,23.9-24.5,21.3
				c-15.1-2.5-23-22.5-20-41.1c2.3-14.5,9.7-35.5,35.9-50.4C26.8,9.8,0,41.8,0,80.1c0,44.3,35.8,80.1,79.9,80.1
				c44.1,0,79.9-35.9,79.9-80.1C159.8,41.8,133,9.8,97.2,1.9L97.2,1.9z M79.9,0C79.9,0,79.9,0,79.9,0C79.9,0,79.9,0,79.9,0L79.9,0z
				 M96.4,18L79.9,0L96.4,18z"/>
		</g>
	</g>
</g>
</svg>
